<?xml version="1.0" standalone="no"?><!DOCTYPE svg PUBLIC "-//W3C//DTD SVG 1.1//EN" "http://www.w3.org/Graphics/SVG/1.1/DTD/svg11.dtd"><svg class="icon" width="200px" height="200.00px" viewBox="0 0 1024 1024" version="1.1" xmlns="http://www.w3.org/2000/svg"><path fill="#626262" d="M904.29232 801.748819l-75.137195-132.192126V393.281256c0-57.605782-20.927326-118.339037-58.926027-171.014108-38.65533-53.587168-92.928067-95.516665-152.813092-118.067603-0.349271-0.130727-0.701536-0.254469-1.055797-0.36923-1.37513-0.444073-6.47848-2.072675-13.975833-4.228176v-9.201797c0-49.847972-40.554367-90.40134-90.401341-90.40134s-90.40134 40.554367-90.40134 90.40134v8.53918c-6.984424 1.994837-11.410188 3.414873-11.919126 3.580527-0.26345 0.083825-0.524905 0.174636-0.785361 0.269438-60.800115 22.015056-115.997922 63.900645-155.429631 117.940868-38.713209 53.053282-60.029723 114.333396-60.029723 172.554892v276.277433l-80.404204 141.51068c-9.673812 16.863807-9.612939 37.861985 0.166652 54.805625 9.720714 16.833869 27.915742 27.292044 47.485901 27.292044H359.35855c11.394221 73.990588 75.49445 130.828971 152.621492 130.828971s141.230265-56.838383 152.621492-130.828971h198.659415c30.286794 0 54.926373-24.609642 54.926373-54.857517 0-13.731344-4.907758-26.574541-13.902986-36.563695zM511.985031 47.18952c23.089814 0 42.005338 18.20401 43.155938 41.010414a351.930551 351.930551 0 0 0-14.62448-2.464856 23.679583 23.679583 0 0 0-6.21503-0.076839c-0.841244-0.123742-1.697458-0.251475-2.564648-0.384199-6.028419-0.912097-12.86116-1.938954-20.482255-1.938953-7.61411 0-14.442859 1.030849-20.470281 1.936958-0.737461 0.109771-1.465941 0.221538-2.183443 0.326319a23.682576 23.682576 0 0 0-6.446547 0.015966 336.805117 336.805117 0 0 0-13.288268 2.149514c1.364153-22.601832 20.178888-40.574325 43.12101-40.574324z m0 929.617967c-51.021522 0-93.806234-35.830225-104.58474-83.64045h209.173473c-10.783496 47.811222-53.565214 83.64045-104.587735 83.64045z m351.282903-130.828971H160.670195c-2.767225 0-5.301935-1.420037-6.618188-3.696287-1.405068-2.431925-1.442989-5.39574-0.053888-7.817685l83.533673-147.013196a23.576797 23.576797 0 0 0 3.079573-11.656673V393.27926c0-102.122878 79.030071-207.786368 183.905205-245.968685 3.447805-1.089726 30.570203-9.510153 57.927111-14.008764 1.628601 0.179625 3.288138 0.190602 4.956656 0.016964 3.681317-0.374219 7.104174-0.890142 10.414267-1.391097 5.020523-0.757419 9.357472-1.410057 13.43097-1.410057 4.081482 0 8.420427 0.654634 13.442946 1.411055 3.3061 0.497961 6.725963 1.014882 10.404287 1.390099 1.509849 0.153679 3.012713 0.159667 4.486637 0.02894 28.392747 4.755077 57.364286 13.820159 61.73716 15.212253 103.025994 39.055495 180.645009 144.159152 180.645009 244.7153v282.513419c0 4.090464 1.062782 8.106083 3.080571 11.657672l79.663749 140.150517a23.521912 23.521912 0 0 0 4.121399 5.313911c1.401076 1.352178 2.172466 3.266184 2.172466 5.389752-0.001996 4.301024-3.399905 7.668995-7.738849 7.668995z" /></svg>