<?xml version="1.0" standalone="no"?><!DOCTYPE svg PUBLIC "-//W3C//DTD SVG 1.1//EN" "http://www.w3.org/Graphics/SVG/1.1/DTD/svg11.dtd"><svg class="icon" width="200px" height="200.00px" viewBox="0 0 1024 1024" version="1.1" xmlns="http://www.w3.org/2000/svg"><path fill="#626262" d="M625.777778 113.944424 625.777778 113.944424 625.777778 398.055576C625.777778 398.46413 625.533998 398.222222 625.944422 398.222222L910.055578 398.222222C910.464131 398.222222 910.222222 398.466001 910.222222 398.055576L910.222222 113.944424C910.222222 113.53587 910.466002 113.777778 910.055578 113.777778L625.944422 113.777778C625.535869 113.777778 625.777778 113.533999 625.777778 113.944424L625.777778 113.944424ZM568.888889 113.944424C568.888889 82.433522 593.799475 56.888889 625.944422 56.888889L910.055578 56.888889C941.566475 56.888889 967.111111 81.799472 967.111111 113.944424L967.111111 398.055576C967.111111 429.566478 942.200525 455.111111 910.055578 455.111111L625.944422 455.111111C594.433525 455.111111 568.888889 430.200528 568.888889 398.055576L568.888889 113.944424ZM56.888889 113.944424C56.888889 82.433522 81.799472 56.888889 113.944424 56.888889L398.055576 56.888889C429.566478 56.888889 455.111111 81.799472 455.111111 113.944424L455.111111 398.055576C455.111111 429.566478 430.200528 455.111111 398.055576 455.111111L113.944424 455.111111C82.433522 455.111111 56.888889 430.200528 56.888889 398.055576L56.888889 113.944424ZM56.888889 625.944422C56.888889 594.433525 81.799472 568.888889 113.944424 568.888889L398.055576 568.888889C429.566478 568.888889 455.111111 593.799475 455.111111 625.944422L455.111111 910.055578C455.111111 941.566475 430.200528 967.111111 398.055576 967.111111L113.944424 967.111111C82.433522 967.111111 56.888889 942.200525 56.888889 910.055578L56.888889 625.944422ZM568.888889 625.944422C568.888889 594.433525 593.799475 568.888889 625.944422 568.888889L910.055578 568.888889C941.566475 568.888889 967.111111 593.799475 967.111111 625.944422L967.111111 910.055578C967.111111 941.566475 942.200525 967.111111 910.055578 967.111111L625.944422 967.111111C594.433525 967.111111 568.888889 942.200525 568.888889 910.055578L568.888889 625.944422Z" /></svg>