<?xml version="1.0" standalone="no"?><!DOCTYPE svg PUBLIC "-//W3C//DTD SVG 1.1//EN" "http://www.w3.org/Graphics/SVG/1.1/DTD/svg11.dtd"><svg class="icon" width="200px" height="200.00px" viewBox="0 0 1024 1024" version="1.1" xmlns="http://www.w3.org/2000/svg"><path fill="#626262" d="M914.3356249999999 474.464375H627.2c-43.584375 0-77.66437499999999-34.08-77.66437499999999-77.66437499999999V109.664375C549.535625 66.07999999999998 583.615625 32 627.2 32h287.135625C957.9200000000001 32 992 66.07999999999998 992 109.664375V396.8c0 43.584375-34.08 77.66437499999999-77.66437499999999 77.66437499999999zM627.2 72.03125c-21.119999999999997 0-37.63125 16.5121875-37.63125 37.63125V396.8c0 21.119999999999997 16.511249999999997 37.63125 37.63125 37.63125h287.135625c21.119999999999997 0 37.6321875-16.511249999999997 37.6321875-37.63125V109.664375c0-21.119999999999997-16.5121875-37.6321875-37.63125-37.6321875H627.2zM396.8 474.4625H109.664375C66.07999999999998 474.464375 32 440.384375 32 396.8V109.664375C32 66.07999999999998 66.07999999999998 32 109.664375 32H396.8c43.584375 0 77.66437499999999 34.08 77.66437499999999 77.66437499999999V396.8c0 43.584375-34.08 77.66437499999999-77.66437499999999 77.66437499999999zM109.664375 72.03312499999998C88.544375 72.03125 72.03125 88.544375 72.03125 109.66250000000002V396.8c0 21.119999999999997 16.5121875 37.63125 37.63125 37.63125H396.8c21.119999999999997 0 37.63125-16.511249999999997 37.63125-37.63125V109.664375c0-21.119999999999997-16.511249999999997-37.6321875-37.63125-37.6321875H109.664375zM396.8 992H109.664375C66.07999999999998 992 32 957.9200000000001 32 914.3356249999999V627.2c0-43.584375 34.08-77.66437499999999 77.66437499999999-77.66437499999999H396.8c43.584375 0 77.66437499999999 34.08 77.66437499999999 77.66437499999999v287.135625c0 43.584375-34.08 77.66437499999999-77.66437499999999 77.66437499999999zM109.664375 589.4721874999999c-21.119999999999997 0-37.6321875 16.5121875-37.6321875 37.63125v287.13656249999997c0 21.119999999999997 16.5121875 37.63125 37.63125 37.63125H396.8c21.119999999999997 0 37.63125-16.511249999999997 37.63125-37.63125V627.2c0-21.119999999999997-16.511249999999997-37.63125-37.63125-37.63125H109.664375v-0.0965625zM914.3356249999999 992H627.2c-43.584375 0-77.66437499999999-34.08-77.66437499999999-77.66437499999999V627.2c0-43.584375 34.08-77.66437499999999 77.66437499999999-77.66437499999999h287.135625c43.584375 0 77.66437499999999 34.08 77.66437499999999 77.66437499999999v287.135625c0 43.584375-34.08 77.66437499999999-77.66437499999999 77.66437499999999zM627.2 589.4721874999999c-21.119999999999997 0-37.63125 16.5121875-37.63125 37.63125v287.13656249999997c0 21.119999999999997 16.511249999999997 37.63125 37.63125 37.63125h287.135625c21.119999999999997 0 37.6321875-16.511249999999997 37.6321875-37.63125V627.2c0-21.119999999999997-16.5121875-37.63125-37.63125-37.63125H627.2v-0.0965625z"  /></svg>