<?xml version="1.0" standalone="no"?><!DOCTYPE svg PUBLIC "-//W3C//DTD SVG 1.1//EN" "http://www.w3.org/Graphics/SVG/1.1/DTD/svg11.dtd"><svg class="icon" width="200px" height="200.00px" viewBox="0 0 1024 1024" version="1.1" xmlns="http://www.w3.org/2000/svg"><path fill="#626262" d="M820.340577 57.652048 229.615585 57.652048c-63.889099 0-115.669416 51.144844-115.669416 114.230648l0 88.107687 118.111025 0 0 92.555999L113.946168 352.546382l0 119.315456 118.111025 0 0 92.555999L113.946168 564.417837l0 119.28271 118.111025 0 0 92.554976L113.946168 776.255523l0 88.140433c0 63.053058 51.780317 114.230648 115.669416 114.230648l590.724992 0c63.890122 0 115.669416-51.17759 115.669416-114.230648L936.009993 171.882696C936.009993 108.796892 884.229676 57.652048 820.340577 57.652048L820.340577 57.652048zM785.01707 756.418732c-1.471514 0.234337-2.910283 0.367367-4.315282 0.367367-10.904351 0-20.638039-7.624654-22.712281-18.597567-17.593703-92.15384-99.379405-158.985968-194.511065-158.985968-94.763271 0-176.515203 66.531276-194.343243 158.316725-2.442632 12.377912-14.517645 20.506033-27.095102 18.129916-12.543687-2.340301-20.772093-14.347776-18.364253-26.759457 18.398022-94.595448 92.154863-166.847006 184.074366-188.254571C457.710536 519.225565 422.554852 470.055702 422.554852 412.889725c0-76.767408 63.219857-139.218762 140.991128-139.218762 77.771271 0 140.991128 62.451354 140.991128 139.218762 0 57.165977-35.155684 106.336864-85.23015 127.745453 92.221378 21.473057 166.010965 94.02649 184.14088 189.057867C805.822932 742.068909 797.560758 754.044662 785.01707 756.418732L785.01707 756.418732zM658.276505 412.889725c0-51.54598-42.515303-93.492324-94.730525-93.492324-52.214199 0-94.729501 41.946344-94.729501 93.492324s42.515303 93.493348 94.729501 93.493348C615.761202 506.383072 658.276505 464.435705 658.276505 412.889725L658.276505 412.889725zM658.276505 412.889725" /></svg>