<?xml version="1.0" standalone="no"?><!DOCTYPE svg PUBLIC "-//W3C//DTD SVG 1.1//EN" "http://www.w3.org/Graphics/SVG/1.1/DTD/svg11.dtd"><svg class="icon" width="200px" height="200.00px" viewBox="0 0 1024 1024" version="1.1" xmlns="http://www.w3.org/2000/svg"><path fill="#626262" d="M46.743862 324.388912 177.883017 324.388912C190.534394 324.388912 200.789111 314.133194 200.789111 301.482746 200.789111 288.831583 190.533251 278.576819 177.883017 278.576819L46.743862 278.576819C34.092484 278.576819 23.837767 288.832536 23.837767 301.482746 23.837767 314.133194 34.093604 324.388912 46.743862 324.388912L46.743862 324.388912ZM177.883017 491.312342 46.743862 491.312342C34.092484 491.312342 23.837767 501.568298 23.837767 514.218508 23.837767 526.869909 34.093604 537.124673 46.743862 537.124673L177.883017 537.124673C190.534394 537.124673 200.789111 526.868718 200.789111 514.218508 200.789111 501.568298 190.534394 491.312342 177.883017 491.312342L177.883017 491.312342ZM177.883017 703.260815 46.743862 703.260815C34.092484 703.260815 23.837767 713.51677 23.837767 726.16698 23.837767 738.818381 34.093604 749.073146 46.743862 749.073146L177.883017 749.073146C190.534394 749.073146 200.789111 738.817191 200.789111 726.16698 200.789111 713.51677 190.534394 703.260815 177.883017 703.260815L177.883017 703.260815ZM877.296092 18.136945 196.70016 18.136945C140.321363 18.136945 94.618076 63.840208 94.618076 120.219029L94.618076 195.204167 141.130061 195.204167 141.130061 132.260316C141.130061 88.410255 165.334873 64.205514 209.184792 64.205514L865.87311 64.205514C909.723029 64.205514 933.927841 88.410255 933.927841 132.260316L933.927841 896.129072C933.927841 939.978895 909.723029 964.183873 865.87311 964.183873L209.184792 964.183873C165.334873 964.183873 141.130061 939.978895 141.130061 896.129072L141.130061 833.18522 94.618076 833.18522 94.618076 906.987282C94.618076 963.366102 140.321363 1009.069366 196.70016 1009.069366L877.296092 1009.069366C933.674889 1009.069366 979.378176 963.366102 979.378176 906.987282L979.378176 120.219029C979.378176 63.841399 933.674889 18.136945 877.296092 18.136945L877.296092 18.136945ZM631.937286 629.567821C691.235626 596.25853 731.64538 533.375881 731.64538 460.518757 731.64538 353.017332 644.500194 265.870884 536.998698 265.870884 429.497201 265.870884 342.350848 353.016141 342.350848 460.518757 342.350848 533.530195 382.933016 596.522627 442.436656 629.776432 385.114183 654.52794 328.017396 700.988964 304.200513 758.805909L353.654736 758.805909C385.321746 699.127665 458.395505 657.849034 530.006064 655.168774 532.322209 655.167821 534.651928 655.166631 536.998698 655.166631 539.63807 655.166631 542.260462 655.167821 544.862422 655.169965 616.470719 657.853559 689.53881 699.130999 721.204653 758.8071L770.658899 758.8071C746.773956 700.8256 689.486634 654.265987 631.937286 629.567821L631.937286 629.567821ZM387.382653 460.517567C387.382653 377.890054 454.371185 310.901641 536.998698 310.901641 619.629592 310.901641 686.614719 377.890054 686.614719 460.517567 686.614719 543.148651 619.629592 610.13373 536.998698 610.13373 454.370066 610.13373 387.382653 543.148651 387.382653 460.517567L387.382653 460.517567Z" /></svg>